<?xml version="1.0" encoding="utf-8" standalone="no"?><!DOCTYPE svg PUBLIC "-//W3C//DTD SVG 1.1//EN" "http://www.w3.org/Graphics/SVG/1.1/DTD/svg11.dtd">
<svg preserveAspectRatio="xMinYMin meet" width="100%" height="100%" viewBox="0 0 864.375 323.438"  version="1.1" xmlns="http://www.w3.org/2000/svg" xmlns:xlink="http://www.w3.org/1999/xlink">
  <desc>Matlab Figure Converted by PLOT2SVG written by Juerg Schwizer</desc>
  <g id="topgroup">
  <rect x="0" y="0" width="864.375" height="323.438" fill="#ffffff" stroke="none" />
  <g id ="ID000000">
  <clipPath id="ID000001">
    <rect x="112.369" y="31.875" width="669.891" height="250.312"/>
  </clipPath>
      <polygon fill="#ffffff" fill-opacity="1.00" stroke="none" stroke-width="0.5pt" stroke-opacity="1.00" stroke-dasharray="none" points="112.369,282.188 782.259,282.188 782.259,31.875 112.369,31.875 "/>
      <polygon fill="#ffffff" fill-opacity="1.00" stroke="none" stroke-width="0.5pt" stroke-opacity="1.00" stroke-dasharray="none" points="112.369,31.875 782.259,31.875 782.259,31.875 112.369,31.875 "/>
      <polygon fill="#ffffff" fill-opacity="1.00" stroke="none" stroke-width="0.5pt" stroke-opacity="1.00" stroke-dasharray="none" points="112.369,282.188 112.369,282.188 112.369,31.875 112.369,31.875 "/>
    <g>
<g id="ID000002" clip-path="url(#ID000001)" >
      <polyline fill="none" stroke="#0000ff" stroke-width="0.5pt" stroke-dasharray="none" points="114.043,146.050 115.718,121.626 117.393,209.527 119.068,231.953 120.742,191.974 122.417,193.588 124.092,230.704 125.767,138.653 127.441,136.719 129.116,230.468 130.791,162.445 132.465,173.902 134.140,201.654 135.815,236.079 137.490,218.646 139.164,218.200 140.839,174.829 142.514,222.102 144.189,252.151 145.863,109.771 147.538,208.139 149.213,184.372 150.887,183.268 152.562,196.765 154.237,187.767 155.912,176.283 157.586,190.185 159.261,157.278 160.936,224.627 162.611,144.035 164.285,264.365 165.960,164.036 167.635,209.365 169.309,65.082 170.984,134.577 172.659,223.121 174.334,174.084 176.008,203.797 177.683,184.984 179.358,253.077 181.033,139.485 182.707,215.406 184.382,162.658 186.057,270.512 187.731,146.903 189.406,167.445 191.081,226.596 192.756,207.558 194.430,275.466 196.105,127.284 197.780,202.771 199.455,196.251 201.129,121.136 202.804,213.179 204.479,168.912 206.153,254.843 207.828,233.341 209.503,169.806 211.178,211.354 212.852,178.624 214.527,243.619 216.202,196.245 217.877,250.249 219.551,246.135 221.226,195.041 222.901,192.382 224.575,222.167 226.250,247.655 227.925,201.548 229.600,150.535 231.274,234.020 232.949,195.524 234.624,198.331 236.299,208.142 237.973,193.759 239.648,199.143 241.323,189.984 242.997,168.029 244.672,229.538 246.347,255.194 248.022,228.351 249.696,204.700 251.371,169.283 253.046,212.499 254.721,227.511 256.395,152.550 258.070,218.996 259.745,216.055 261.419,177.871 263.094,207.761 264.769,195.874 266.444,74.280 268.118,238.709 269.793,187.646 271.468,204.160 273.142,187.914 274.817,240.394 276.492,155.463 278.167,240.557 279.841,206.850 281.516,163.705 283.191,189.101 284.866,216.430 286.540,193.389 288.215,222.262 289.890,208.309 291.564,160.069 293.239,183.804 294.914,150.419 296.589,221.400 298.263,261.237 299.938,178.159 301.613,77.472 303.288,211.551 304.962,216.052 306.637,257.767 308.312,166.922 309.986,162.174 311.661,211.655 313.336,181.770 315.011,221.185 316.685,181.649 318.360,218.614 320.035,202.102 321.710,217.299 323.384,231.564 325.059,185.868 326.734,224.271 328.408,206.542 330.083,220.833 331.758,231.620 333.433,202.288 335.107,161.739 336.782,150.230 338.457,239.537 340.132,199.032 341.806,225.291 343.481,268.076 345.156,227.750 346.830,239.553 348.505,215.445 350.180,207.411 351.855,195.190 353.529,218.816 355.204,158.092 356.879,202.428 358.554,256.562 360.228,188.146 361.903,150.639 363.578,186.787 365.252,160.260 366.927,206.648 368.602,147.149 370.277,186.206 371.951,191.525 373.626,189.199 375.301,212.569 376.976,227.215 378.650,175.979 380.325,174.071 382.000,266.632 383.674,191.239 385.349,128.656 387.024,207.989 388.699,190.395 390.373,251.470 392.048,97.597 393.723,189.212 395.398,179.967 397.072,183.617 398.747,172.564 400.422,219.721 402.096,213.026 403.771,238.532 405.446,159.519 407.121,228.679 408.795,145.361 410.470,102.066 412.145,230.625 413.820,205.173 415.494,237.792 417.169,211.641 418.844,171.433 420.518,191.907 422.193,201.490 423.868,106.114 425.543,228.137 427.217,167.358 428.892,237.565 430.567,221.216 432.242,229.069 433.916,200.046 435.591,175.428 437.266,192.665 438.940,193.050 440.615,196.928 442.290,153.140 443.965,162.611 445.639,156.496 447.314,164.301 448.989,151.265 450.664,171.863 452.338,236.219 454.013,222.507 455.688,157.261 457.362,201.832 459.037,133.650 460.712,211.471 462.387,187.704 464.061,223.551 465.736,209.772 467.411,239.260 469.086,224.585 470.760,205.850 472.435,201.281 474.110,198.200 475.784,194.016 477.459,154.683 479.134,224.584 480.809,187.796 482.483,202.111 484.158,240.778 485.833,205.548 487.507,213.096 489.182,195.839 490.857,157.234 492.532,208.376 494.206,145.464 495.881,152.036 497.556,205.739 499.231,240.743 500.905,232.425 502.580,189.015 504.255,161.980 505.929,256.737 507.604,174.922 509.279,227.977 510.954,137.522 512.628,134.259 514.303,226.614 515.978,248.991 517.653,195.230 519.327,169.543 521.002,247.099 522.677,190.314 524.351,210.438 526.026,199.575 527.701,138.277 529.376,152.843 531.050,192.289 532.725,111.482 534.400,197.244 536.075,204.904 537.749,221.897 539.424,227.677 541.099,194.601 542.773,215.981 544.448,196.763 546.123,184.533 547.798,158.342 549.472,177.876 551.147,201.240 552.822,186.370 554.497,156.347 556.171,206.651 557.846,225.694 559.521,177.999 561.195,137.955 562.870,236.912 564.545,209.404 566.220,144.726 567.894,176.125 569.569,183.969 571.244,187.371 572.919,156.408 574.593,203.276 576.268,247.524 577.943,182.282 579.617,141.524 581.292,198.198 582.967,206.156 584.642,203.314 586.316,186.403 587.991,131.450 589.666,178.726 591.341,213.481 593.015,204.956 594.690,230.514 596.365,190.464 598.039,186.145 599.714,235.440 601.389,147.554 603.064,232.117 604.738,125.233 606.413,219.486 608.088,194.632 609.763,159.834 611.437,254.652 613.112,210.172 614.787,165.951 616.461,205.688 618.136,231.992 619.811,151.999 621.486,216.109 623.160,227.738 624.835,159.748 626.510,126.943 628.185,227.627 629.859,211.026 631.534,210.682 633.209,231.110 634.883,180.222 636.558,193.347 638.233,209.344 639.908,211.493 641.582,165.562 643.257,167.939 644.932,258.504 646.607,205.260 648.281,137.013 649.956,212.854 651.631,176.440 653.305,229.036 654.980,231.325 656.655,195.036 658.330,232.312 660.004,168.857 661.679,84.045 663.354,135.412 665.029,169.953 666.703,213.685 668.378,201.205 670.053,240.623 671.727,243.642 673.402,181.578 675.077,178.860 676.752,200.069 678.426,202.047 680.101,227.430 681.776,224.296 683.451,248.136 685.125,232.061 686.800,192.629 688.475,176.241 690.149,197.175 691.824,244.672 693.499,196.367 695.174,217.963 696.848,196.395 698.523,208.549 700.198,192.664 701.872,183.684 703.547,213.084 705.222,228.628 706.897,129.306 708.571,201.323 710.246,175.618 711.921,207.158 713.596,114.126 715.270,244.074 716.945,198.481 718.620,219.610 720.294,121.689 721.969,233.917 723.644,226.787 725.319,136.498 726.993,249.092 728.668,178.271 730.343,191.778 732.018,167.301 733.692,193.473 735.367,233.629 737.042,100.471 738.716,229.820 740.391,238.782 742.066,189.039 743.741,249.017 745.415,213.306 747.090,218.631 748.765,209.170 750.440,115.199 752.114,186.104 753.789,120.396 755.464,209.121 757.138,186.877 758.813,217.136 760.488,237.514 762.163,153.071 763.837,182.937 765.512,168.890 767.187,194.387 768.862,239.950 770.536,244.549 772.211,167.063 773.886,197.347 775.560,233.932 777.235,176.419 778.910,214.522 780.585,208.411 782.259,205.788 "/>
<g>
</g>
</g>
<g id="ID000003" >
  <g transform="translate(446.845,316.687)">
    <g transform="rotate(-0.0)">
      <text x="0.000" y="0.000" font-family="Helvetica" text-anchor="middle" font-size="13pt" fill="#000000" >Iterations</text>
    </g>
  </g>
</g>
<g id="ID000004" >
  <g transform="translate(82.348,157.969)">
    <g transform="rotate(-90.0)">
      <text x="0.000" y="0.000" font-family="Helvetica" text-anchor="middle" font-size="13pt" fill="#000000" >Samples</text>
    </g>
  </g>
</g>
<g id="ID000005" >
  <g transform="translate(446.845,22.500)">
    <g transform="rotate(-0.0)">
      <text x="0.000" y="0.000" font-family="Helvetica" text-anchor="middle" font-size="13pt" fill="#000000" ><tspan>&#963;</tspan><tspan></tspan><tspan dy="-6.6pt" font-size="9pt">2</tspan><tspan dy="6.6pt" font-size="13pt"> Samples</tspan></text>
    </g>
  </g>
</g>
    </g>
    <g>
      <polyline fill="none" stroke="#000000" stroke-width="0.5pt" stroke-dasharray="none" points="196.105,282.188 196.105,275.489 "/>
      <polyline fill="none" stroke="#000000" stroke-width="0.5pt" stroke-dasharray="none" points="279.841,282.188 279.841,275.489 "/>
      <polyline fill="none" stroke="#000000" stroke-width="0.5pt" stroke-dasharray="none" points="363.578,282.188 363.578,275.489 "/>
      <polyline fill="none" stroke="#000000" stroke-width="0.5pt" stroke-dasharray="none" points="447.314,282.188 447.314,275.489 "/>
      <polyline fill="none" stroke="#000000" stroke-width="0.5pt" stroke-dasharray="none" points="531.050,282.188 531.050,275.489 "/>
      <polyline fill="none" stroke="#000000" stroke-width="0.5pt" stroke-dasharray="none" points="614.787,282.188 614.787,275.489 "/>
      <polyline fill="none" stroke="#000000" stroke-width="0.5pt" stroke-dasharray="none" points="698.523,282.188 698.523,275.489 "/>
      <polyline fill="none" stroke="#000000" stroke-width="0.5pt" stroke-dasharray="none" points="112.369,282.188 782.259,282.188 "/>
      <polyline fill="none" stroke="#000000" stroke-width="0.5pt" stroke-dasharray="none" points="196.105,31.875 196.105,38.574 "/>
      <polyline fill="none" stroke="#000000" stroke-width="0.5pt" stroke-dasharray="none" points="279.841,31.875 279.841,38.574 "/>
      <polyline fill="none" stroke="#000000" stroke-width="0.5pt" stroke-dasharray="none" points="363.578,31.875 363.578,38.574 "/>
      <polyline fill="none" stroke="#000000" stroke-width="0.5pt" stroke-dasharray="none" points="447.314,31.875 447.314,38.574 "/>
      <polyline fill="none" stroke="#000000" stroke-width="0.5pt" stroke-dasharray="none" points="531.050,31.875 531.050,38.574 "/>
      <polyline fill="none" stroke="#000000" stroke-width="0.5pt" stroke-dasharray="none" points="614.787,31.875 614.787,38.574 "/>
      <polyline fill="none" stroke="#000000" stroke-width="0.5pt" stroke-dasharray="none" points="698.523,31.875 698.523,38.574 "/>
      <polyline fill="none" stroke="#000000" stroke-width="0.5pt" stroke-dasharray="none" points="112.369,31.875 782.259,31.875 "/>
  <g transform="translate(112.369,298.256)">
    <g transform="rotate(-0.0)">
      <text x="0.000" y="0.000" font-family="Helvetica" text-anchor="middle" font-size="9pt" fill="#000000" >0</text>
    </g>
  </g>
  <g transform="translate(196.105,298.256)">
    <g transform="rotate(-0.0)">
      <text x="0.000" y="0.000" font-family="Helvetica" text-anchor="middle" font-size="9pt" fill="#000000" >50</text>
    </g>
  </g>
  <g transform="translate(279.841,298.256)">
    <g transform="rotate(-0.0)">
      <text x="0.000" y="0.000" font-family="Helvetica" text-anchor="middle" font-size="9pt" fill="#000000" >100</text>
    </g>
  </g>
  <g transform="translate(363.578,298.256)">
    <g transform="rotate(-0.0)">
      <text x="0.000" y="0.000" font-family="Helvetica" text-anchor="middle" font-size="9pt" fill="#000000" >150</text>
    </g>
  </g>
  <g transform="translate(447.314,298.256)">
    <g transform="rotate(-0.0)">
      <text x="0.000" y="0.000" font-family="Helvetica" text-anchor="middle" font-size="9pt" fill="#000000" >200</text>
    </g>
  </g>
  <g transform="translate(531.050,298.256)">
    <g transform="rotate(-0.0)">
      <text x="0.000" y="0.000" font-family="Helvetica" text-anchor="middle" font-size="9pt" fill="#000000" >250</text>
    </g>
  </g>
  <g transform="translate(614.787,298.256)">
    <g transform="rotate(-0.0)">
      <text x="0.000" y="0.000" font-family="Helvetica" text-anchor="middle" font-size="9pt" fill="#000000" >300</text>
    </g>
  </g>
  <g transform="translate(698.523,298.256)">
    <g transform="rotate(-0.0)">
      <text x="0.000" y="0.000" font-family="Helvetica" text-anchor="middle" font-size="9pt" fill="#000000" >350</text>
    </g>
  </g>
  <g transform="translate(782.259,298.256)">
    <g transform="rotate(-0.0)">
      <text x="0.000" y="0.000" font-family="Helvetica" text-anchor="middle" font-size="9pt" fill="#000000" >400</text>
    </g>
  </g>
      <polyline fill="none" stroke="#000000" stroke-width="0.5pt" stroke-dasharray="none" points="112.369,240.469 119.068,240.469 "/>
      <polyline fill="none" stroke="#000000" stroke-width="0.5pt" stroke-dasharray="none" points="112.369,198.750 119.068,198.750 "/>
      <polyline fill="none" stroke="#000000" stroke-width="0.5pt" stroke-dasharray="none" points="112.369,157.031 119.068,157.031 "/>
      <polyline fill="none" stroke="#000000" stroke-width="0.5pt" stroke-dasharray="none" points="112.369,115.313 119.068,115.313 "/>
      <polyline fill="none" stroke="#000000" stroke-width="0.5pt" stroke-dasharray="none" points="112.369,73.594 119.068,73.594 "/>
      <polyline fill="none" stroke="#000000" stroke-width="0.5pt" stroke-dasharray="none" points="112.369,282.188 112.369,31.875 "/>
      <polyline fill="none" stroke="#000000" stroke-width="0.5pt" stroke-dasharray="none" points="782.259,240.469 775.560,240.469 "/>
      <polyline fill="none" stroke="#000000" stroke-width="0.5pt" stroke-dasharray="none" points="782.259,198.750 775.560,198.750 "/>
      <polyline fill="none" stroke="#000000" stroke-width="0.5pt" stroke-dasharray="none" points="782.259,157.031 775.560,157.031 "/>
      <polyline fill="none" stroke="#000000" stroke-width="0.5pt" stroke-dasharray="none" points="782.259,115.313 775.560,115.313 "/>
      <polyline fill="none" stroke="#000000" stroke-width="0.5pt" stroke-dasharray="none" points="782.259,73.594 775.560,73.594 "/>
      <polyline fill="none" stroke="#000000" stroke-width="0.5pt" stroke-dasharray="none" points="782.259,282.188 782.259,31.875 "/>
  <g transform="translate(98.971,286.406)">
    <g transform="rotate(-0.0)">
      <text x="0.000" y="0.000" font-family="Helvetica" text-anchor="end" font-size="9pt" fill="#000000" >0.8</text>
    </g>
  </g>
  <g transform="translate(98.971,244.688)">
    <g transform="rotate(-0.0)">
      <text x="0.000" y="0.000" font-family="Helvetica" text-anchor="end" font-size="9pt" fill="#000000" >1</text>
    </g>
  </g>
  <g transform="translate(98.971,202.969)">
    <g transform="rotate(-0.0)">
      <text x="0.000" y="0.000" font-family="Helvetica" text-anchor="end" font-size="9pt" fill="#000000" >1.2</text>
    </g>
  </g>
  <g transform="translate(98.971,161.250)">
    <g transform="rotate(-0.0)">
      <text x="0.000" y="0.000" font-family="Helvetica" text-anchor="end" font-size="9pt" fill="#000000" >1.4</text>
    </g>
  </g>
  <g transform="translate(98.971,119.531)">
    <g transform="rotate(-0.0)">
      <text x="0.000" y="0.000" font-family="Helvetica" text-anchor="end" font-size="9pt" fill="#000000" >1.6</text>
    </g>
  </g>
  <g transform="translate(98.971,77.813)">
    <g transform="rotate(-0.0)">
      <text x="0.000" y="0.000" font-family="Helvetica" text-anchor="end" font-size="9pt" fill="#000000" >1.8</text>
    </g>
  </g>
  <g transform="translate(98.971,36.094)">
    <g transform="rotate(-0.0)">
      <text x="0.000" y="0.000" font-family="Helvetica" text-anchor="end" font-size="9pt" fill="#000000" >2</text>
    </g>
  </g>
      <polyline fill="none" stroke="#000000" stroke-width="0.5pt" stroke-dasharray="none" points="112.369,282.188 112.369,279.684 "/>
      <polyline fill="none" stroke="#000000" stroke-width="0.5pt" stroke-dasharray="none" points="112.369,282.188 112.369,282.188 "/>
    </g>
  </g>
  </g>
</svg>
